<?xml version="1.0" encoding="UTF-8"?><svg id="Layer_1" xmlns="http://www.w3.org/2000/svg" xmlns:xlink="http://www.w3.org/1999/xlink" viewBox="0 0 51.55 51.55"><defs><style>.cls-1{fill:none;}.cls-2{fill:#6c6c6c;}.cls-3{fill:#ef6f25;}.cls-4{fill:#1d1d1b;}.cls-5{fill:#3a3a3a;}.cls-6{fill:#fff;}.cls-7{fill:#909091;}.cls-8{clip-path:url(#clippath);}</style><clipPath id="clippath"><rect class="cls-1" x="14.31" y="17.07" width="28.56" height="26"/></clipPath></defs><rect class="cls-6" width="51.55" height="51.55"/><path class="cls-3" d="M13.1,19.15c-.13,0-.26-.02-.39-.07-.13-.05-.24-.12-.35-.21-.6-.55-1.13-1.09-1.59-1.61-.46-.52-.84-1.03-1.15-1.53-.31-.49-.54-.97-.7-1.42-.16-.46-.24-.89-.24-1.3,0-1.38.44-2.48,1.33-3.3.89-.82,1.92-1.23,3.08-1.23s2.2.41,3.08,1.23c.89.82,1.33,1.92,1.33,3.3,0,.41-.08.85-.24,1.3-.16.46-.4.93-.7,1.42-.31.49-.69,1-1.15,1.53-.46.52-.99,1.06-1.59,1.61-.1.09-.22.16-.35.21-.13.05-.26.07-.39.07ZM13.1,14c.3,0,.56-.11.78-.32s.32-.48.32-.78-.11-.56-.32-.78-.48-.32-.78-.32-.56.11-.78.32-.32.48-.32.78.11.56.32.78.48.32.78.32Z"/><g class="cls-8"><path class="cls-7" d="M26.28,42.75c-.19-.95,8.1-1.65,11.72-8.18.35-.63,1.77-3.33,1.57-6.86-.19-3.33-1.74-5.96-2.97-7.57-.84-.66-1.83-1.27-2.97-1.77-1.16-.5-3.26-1.4-5.92-1.09-3.92.46-6.37,3.24-9.22,6.49-1.92,2.19-3.17,3.64-3.78,6.07-.15.61-.96,3.79.38,6.81,2.09,4.71,8.01,5.95,11.36,6.29-.09-.06-.14-.13-.15-.19h0Z"/><path class="cls-2" d="M41.31,38.12c2.12-3.36,1.51-7.4,1.36-8.28-.39-2.23-1.3-3.75-2.04-4.97-.66-1.08-1.89-3.06-4.04-4.74,1.23,1.61,2.78,4.24,2.97,7.57,0,.13.02.36.02.65,0,2.99-1.41,5.21-2.15,6.34,0,0-2.44,3.73-7.99,6.4-1.39.67-2.64,1.27-3.92,1.41-.16.02-.67.07-.67.15,0,.11.96.21,1.57.28.26.03.94.09,1.84.12.18,0,.32,0,.41,0,2.27.03,9.42.13,12.63-4.95h0Z"/><path class="cls-4" d="M22.86,30.03c.61,0,1.1-.58,1.1-1.31s-.49-1.31-1.1-1.31-1.1.58-1.1,1.31.49,1.31,1.1,1.31Z"/><path class="cls-4" d="M29.09,30.4c.61,0,1.1-.58,1.1-1.31s-.49-1.31-1.1-1.31-1.1.58-1.1,1.31.49,1.31,1.1,1.31Z"/><path class="cls-5" d="M33.37,18c-3.1-1.38-6.18-1.2-6.88.4,0,.02-.01.04-.02.05,1.31-.65,3.62-.49,5.93.54,3.06,1.36,4.99,3.73,4.36,5.33.03-.01.06-.03.09-.04.39-.22.69-.51.85-.89.7-1.6-1.24-4.01-4.34-5.39h0Z"/><path class="cls-2" d="M32.4,18.99c-2.32-1.03-4.62-1.19-5.93-.54-.12.31-.15.64-.09.99.24,1.48,1.97,3.24,4.45,4.35,2.32,1.03,4.63,1.19,5.94.53.63-1.6-1.3-3.97-4.36-5.33h0Z"/><path class="cls-4" d="M23.2,31.41c.12.93.94,1.55,1.76,1.86.92.35,2.14.44,2.97-.18.45-.33.76-.81.82-1.38.01-.15-.14-.29-.28-.29-.17,0-.27.13-.28.29-.08.81-.95,1.23-1.67,1.25-.76.02-1.62-.21-2.2-.72-.3-.26-.5-.59-.55-.99-.02-.15-.22-.24-.35-.2-.16.05-.22.2-.2.35h0Z"/></g></svg>