<svg width="20" height="20" viewBox="0 0 20 20" fill="none" xmlns="http://www.w3.org/2000/svg">
<path d="M8.57143 11.4286H1.42857C1.02381 11.4286 0.684524 11.2917 0.410714 11.0179C0.136905 10.744 0 10.4048 0 10C0 9.59524 0.136905 9.25595 0.410714 8.98214C0.684524 8.70833 1.02381 8.57143 1.42857 8.57143H8.57143V1.42857C8.57143 1.02381 8.70833 0.684524 8.98214 0.410714C9.25595 0.136905 9.59524 0 10 0C10.4048 0 10.744 0.136905 11.0179 0.410714C11.2917 0.684524 11.4286 1.02381 11.4286 1.42857V8.57143H18.5714C18.9762 8.57143 19.3155 8.70833 19.5893 8.98214C19.8631 9.25595 20 9.59524 20 10C20 10.4048 19.8631 10.744 19.5893 11.0179C19.3155 11.2917 18.9762 11.4286 18.5714 11.4286H11.4286V18.5714C11.4286 18.9762 11.2917 19.3155 11.0179 19.5893C10.744 19.8631 10.4048 20 10 20C9.59524 20 9.25595 19.8631 8.98214 19.5893C8.70833 19.3155 8.57143 18.9762 8.57143 18.5714V11.4286Z" fill="white"/>
</svg>
