<svg width="28" height="28" viewBox="0 0 28 28" fill="none" xmlns="http://www.w3.org/2000/svg">
<path d="M13.9999 20.4167C15.4583 20.4167 16.6978 19.9062 17.7187 18.8854C18.7395 17.8646 19.2499 16.625 19.2499 15.1667C19.2499 13.7083 18.7395 12.4688 17.7187 11.4479C16.6978 10.4271 15.4583 9.91667 13.9999 9.91667C12.5416 9.91667 11.302 10.4271 10.2812 11.4479C9.26034 12.4688 8.74992 13.7083 8.74992 15.1667C8.74992 16.625 9.26034 17.8646 10.2812 18.8854C11.302 19.9062 12.5416 20.4167 13.9999 20.4167ZM13.9999 18.0833C13.1833 18.0833 12.493 17.8014 11.9291 17.2375C11.3652 16.6736 11.0833 15.9833 11.0833 15.1667C11.0833 14.35 11.3652 13.6597 11.9291 13.0958C12.493 12.5319 13.1833 12.25 13.9999 12.25C14.8166 12.25 15.5069 12.5319 16.0708 13.0958C16.6346 13.6597 16.9166 14.35 16.9166 15.1667C16.9166 15.9833 16.6346 16.6736 16.0708 17.2375C15.5069 17.8014 14.8166 18.0833 13.9999 18.0833ZM4.66659 24.5C4.02492 24.5 3.47561 24.2715 3.01867 23.8146C2.56172 23.3576 2.33325 22.8083 2.33325 22.1667V8.16667C2.33325 7.525 2.56172 6.97569 3.01867 6.51875C3.47561 6.06181 4.02492 5.83333 4.66659 5.83333H8.34159L9.79992 4.25833C10.0138 4.025 10.2714 3.84028 10.5728 3.70417C10.8742 3.56806 11.1902 3.5 11.5208 3.5H16.4791C16.8096 3.5 17.1256 3.56806 17.427 3.70417C17.7284 3.84028 17.986 4.025 18.1999 4.25833L19.6583 5.83333H23.3333C23.9749 5.83333 24.5242 6.06181 24.9812 6.51875C25.4381 6.97569 25.6666 7.525 25.6666 8.16667V22.1667C25.6666 22.8083 25.4381 23.3576 24.9812 23.8146C24.5242 24.2715 23.9749 24.5 23.3333 24.5H4.66659Z" fill="#EF6F25"/>
</svg>
