<svg width="54" height="54" viewBox="0 0 54 54" fill="none" xmlns="http://www.w3.org/2000/svg">
<g filter="url(#filter0_d_31068_16865)">
<path d="M3 26C3 12.7452 13.7452 2 27 2C40.2548 2 51 12.7452 51 26C51 39.2548 40.2548 50 27 50C13.7452 50 3 39.2548 3 26Z" fill="#EF6F25"/>
<path d="M27 31.9167C28.4583 31.9167 29.6979 31.4062 30.7187 30.3854C31.7396 29.3646 32.25 28.125 32.25 26.6667C32.25 25.2083 31.7396 23.9688 30.7187 22.9479C29.6979 21.9271 28.4583 21.4167 27 21.4167C25.5416 21.4167 24.3021 21.9271 23.2812 22.9479C22.2604 23.9688 21.75 25.2083 21.75 26.6667C21.75 28.125 22.2604 29.3646 23.2812 30.3854C24.3021 31.4062 25.5416 31.9167 27 31.9167ZM27 29.5833C26.1833 29.5833 25.493 29.3014 24.9291 28.7375C24.3653 28.1736 24.0833 27.4833 24.0833 26.6667C24.0833 25.85 24.3653 25.1597 24.9291 24.5958C25.493 24.0319 26.1833 23.75 27 23.75C27.8166 23.75 28.5069 24.0319 29.0708 24.5958C29.6347 25.1597 29.9166 25.85 29.9166 26.6667C29.9166 27.4833 29.6347 28.1736 29.0708 28.7375C28.5069 29.3014 27.8166 29.5833 27 29.5833ZM17.6666 36C17.025 36 16.4757 35.7715 16.0187 35.3146C15.5618 34.8576 15.3333 34.3083 15.3333 33.6667V19.6667C15.3333 19.025 15.5618 18.4757 16.0187 18.0187C16.4757 17.5618 17.025 17.3333 17.6666 17.3333H21.3416L22.8 15.7583C23.0139 15.525 23.2715 15.3403 23.5729 15.2042C23.8743 15.0681 24.1903 15 24.5208 15H29.4791C29.8097 15 30.1257 15.0681 30.4271 15.2042C30.7285 15.3403 30.9861 15.525 31.2 15.7583L32.6583 17.3333H36.3333C36.975 17.3333 37.5243 17.5618 37.9812 18.0187C38.4382 18.4757 38.6666 19.025 38.6666 19.6667V33.6667C38.6666 34.3083 38.4382 34.8576 37.9812 35.3146C37.5243 35.7715 36.975 36 36.3333 36H17.6666Z" fill="white"/>
<path d="M13 33.5C13 29.634 16.134 26.5 20 26.5C23.866 26.5 27 29.634 27 33.5C27 37.366 23.866 40.5 20 40.5C16.134 40.5 13 37.366 13 33.5Z" fill="white"/>
<path d="M19.2857 34.2143H15.7143C15.5119 34.2143 15.3423 34.1458 15.2054 34.0089C15.0685 33.872 15 33.7024 15 33.5C15 33.2976 15.0685 33.128 15.2054 32.9911C15.3423 32.8542 15.5119 32.7857 15.7143 32.7857H19.2857V29.2143C19.2857 29.0119 19.3542 28.8423 19.4911 28.7054C19.628 28.5685 19.7976 28.5 20 28.5C20.2024 28.5 20.372 28.5685 20.5089 28.7054C20.6458 28.8423 20.7143 29.0119 20.7143 29.2143V32.7857H24.2857C24.4881 32.7857 24.6577 32.8542 24.7946 32.9911C24.9315 33.128 25 33.2976 25 33.5C25 33.7024 24.9315 33.872 24.7946 34.0089C24.6577 34.1458 24.4881 34.2143 24.2857 34.2143H20.7143V37.7857C20.7143 37.9881 20.6458 38.1577 20.5089 38.2946C20.372 38.4315 20.2024 38.5 20 38.5C19.7976 38.5 19.628 38.4315 19.4911 38.2946C19.3542 38.1577 19.2857 37.9881 19.2857 37.7857V34.2143Z" fill="#EF6F25"/>
</g>
<defs>
<filter id="filter0_d_31068_16865" x="0" y="0" width="54" height="54" filterUnits="userSpaceOnUse" color-interpolation-filters="sRGB">
<feFlood flood-opacity="0" result="BackgroundImageFix"/>
<feColorMatrix in="SourceAlpha" type="matrix" values="0 0 0 0 0 0 0 0 0 0 0 0 0 0 0 0 0 0 127 0" result="hardAlpha"/>
<feOffset dy="1"/>
<feGaussianBlur stdDeviation="1.5"/>
<feColorMatrix type="matrix" values="0 0 0 0 0 0 0 0 0 0 0 0 0 0 0 0 0 0 0.2 0"/>
<feBlend mode="normal" in2="BackgroundImageFix" result="effect1_dropShadow_31068_16865"/>
<feBlend mode="normal" in="SourceGraphic" in2="effect1_dropShadow_31068_16865" result="shape"/>
</filter>
</defs>
</svg>
