<svg width="40" height="54" viewBox="0 0 40 54" fill="none" xmlns="http://www.w3.org/2000/svg">
<path d="M20 0C25.2917 0 29.9479 2.07288 33.9688 6.21777C37.9894 10.3626 40 15.9276 40 22.9131C40 25.0088 39.6354 27.2094 38.9062 29.5146C38.1771 31.8199 37.1145 34.2184 35.7188 36.71C34.3229 39.2015 32.5833 41.7751 30.5 44.4297C28.4167 47.0842 26.0207 49.8083 23.3125 52.6025C22.8542 53.0682 22.3333 53.4175 21.75 53.6504C21.1667 53.8832 20.5833 54 20 54C19.4167 54 18.8333 53.8832 18.25 53.6504C17.6667 53.4175 17.1458 53.0682 16.6875 52.6025C13.9793 49.8083 11.5833 47.0842 9.5 44.4297C7.41667 41.7751 5.67708 39.2015 4.28125 36.71C2.88547 34.2184 1.8229 31.8199 1.09375 29.5146C0.364627 27.2094 0 25.0088 0 22.9131C4.59308e-05 15.9276 2.01061 10.3626 6.03125 6.21777C10.0521 2.07288 14.7083 1.55628e-07 20 0Z" fill="#D54049"/>
<path d="M9.17915 31.5C8.96526 31.5 8.77081 31.4465 8.59581 31.3396C8.42081 31.2326 8.2847 31.0917 8.18748 30.9167C8.09026 30.7417 8.03678 30.5521 8.02706 30.3479C8.01734 30.1438 8.07081 29.9444 8.18748 29.75L18.9791 11.0833C19.0958 10.8889 19.2465 10.7431 19.4312 10.6458C19.616 10.5486 19.8055 10.5 20 10.5C20.1944 10.5 20.384 10.5486 20.5687 10.6458C20.7535 10.7431 20.9041 10.8889 21.0208 11.0833L31.8125 29.75C31.9291 29.9444 31.9826 30.1438 31.9729 30.3479C31.9632 30.5521 31.9097 30.7417 31.8125 30.9167C31.7153 31.0917 31.5791 31.2326 31.4041 31.3396C31.2291 31.4465 31.0347 31.5 30.8208 31.5H9.17915ZM20 28C20.3305 28 20.6076 27.8882 20.8312 27.6646C21.0548 27.441 21.1666 27.1639 21.1666 26.8333C21.1666 26.5028 21.0548 26.2257 20.8312 26.0021C20.6076 25.7785 20.3305 25.6667 20 25.6667C19.6694 25.6667 19.3923 25.7785 19.1687 26.0021C18.9451 26.2257 18.8333 26.5028 18.8333 26.8333C18.8333 27.1639 18.9451 27.441 19.1687 27.6646C19.3923 27.8882 19.6694 28 20 28ZM20 24.5C20.3305 24.5 20.6076 24.3882 20.8312 24.1646C21.0548 23.941 21.1666 23.6639 21.1666 23.3333V19.8333C21.1666 19.5028 21.0548 19.2257 20.8312 19.0021C20.6076 18.7785 20.3305 18.6667 20 18.6667C19.6694 18.6667 19.3923 18.7785 19.1687 19.0021C18.9451 19.2257 18.8333 19.5028 18.8333 19.8333V23.3333C18.8333 23.6639 18.9451 23.941 19.1687 24.1646C19.3923 24.3882 19.6694 24.5 20 24.5Z" fill="black"/>
</svg>
