<svg width="20" height="23" viewBox="0 0 20 23" fill="none" xmlns="http://www.w3.org/2000/svg">
<path d="M10.0001 22.8791C9.72786 22.8791 9.45564 22.8305 9.18342 22.7333C8.91119 22.6361 8.66814 22.4903 8.45425 22.2958C7.19036 21.1291 6.0723 19.9916 5.10008 18.8833C4.12786 17.775 3.31605 16.7007 2.66467 15.6604C2.01328 14.6201 1.51744 13.6187 1.17716 12.6562C0.836887 11.6937 0.666748 10.775 0.666748 9.89998C0.666748 6.98331 1.60494 4.6597 3.48133 2.92915C5.35772 1.19859 7.53064 0.333313 10.0001 0.333313C12.4695 0.333313 14.6424 1.19859 16.5188 2.92915C18.3952 4.6597 19.3334 6.98331 19.3334 9.89998C19.3334 10.775 19.1633 11.6937 18.823 12.6562C18.4827 13.6187 17.9869 14.6201 17.3355 15.6604C16.6841 16.7007 15.8723 17.775 14.9001 18.8833C13.9279 19.9916 12.8098 21.1291 11.5459 22.2958C11.332 22.4903 11.089 22.6361 10.8167 22.7333C10.5445 22.8305 10.2723 22.8791 10.0001 22.8791ZM10.0001 12C10.6417 12 11.1911 11.7715 11.648 11.3146C12.1049 10.8576 12.3334 10.3083 12.3334 9.66665C12.3334 9.02498 12.1049 8.47567 11.648 8.01873C11.1911 7.56178 10.6417 7.33331 10.0001 7.33331C9.35842 7.33331 8.80911 7.56178 8.35217 8.01873C7.89522 8.47567 7.66675 9.02498 7.66675 9.66665C7.66675 10.3083 7.89522 10.8576 8.35217 11.3146C8.80911 11.7715 9.35842 12 10.0001 12Z" fill="#EF6F25"/>
</svg>
