<svg width="18" height="22" viewBox="0 0 18 22" fill="none" xmlns="http://www.w3.org/2000/svg">
<path d="M1.6501 18.35C1.3526 18.35 1.10322 18.2494 0.901973 18.0481C0.700723 17.8469 0.600098 17.5975 0.600098 17.3C0.600098 17.0025 0.700723 16.7531 0.901973 16.5519C1.10322 16.3506 1.3526 16.25 1.6501 16.25H2.7001V8.9C2.7001 7.4475 3.1376 6.15688 4.0126 5.02812C4.8876 3.89937 6.0251 3.16 7.4251 2.81V2.075C7.4251 1.6375 7.57822 1.26563 7.88447 0.959375C8.19072 0.653125 8.5626 0.5 9.0001 0.5C9.4376 0.5 9.80947 0.653125 10.1157 0.959375C10.422 1.26563 10.5751 1.6375 10.5751 2.075V2.81C11.9751 3.16 13.1126 3.89937 13.9876 5.02812C14.8626 6.15688 15.3001 7.4475 15.3001 8.9V16.25H16.3501C16.6476 16.25 16.897 16.3506 17.0982 16.5519C17.2995 16.7531 17.4001 17.0025 17.4001 17.3C17.4001 17.5975 17.2995 17.8469 17.0982 18.0481C16.897 18.2494 16.6476 18.35 16.3501 18.35H1.6501ZM9.0001 21.5C8.4226 21.5 7.92822 21.2944 7.51697 20.8831C7.10572 20.4719 6.9001 19.9775 6.9001 19.4H11.1001C11.1001 19.9775 10.8945 20.4719 10.4832 20.8831C10.072 21.2944 9.5776 21.5 9.0001 21.5ZM4.8001 16.25H13.2001V8.9C13.2001 7.745 12.7888 6.75625 11.9663 5.93375C11.1438 5.11125 10.1551 4.7 9.0001 4.7C7.8451 4.7 6.85635 5.11125 6.03385 5.93375C5.21135 6.75625 4.8001 7.745 4.8001 8.9V16.25Z" fill="#4C4C4C"/>
</svg>
