<svg width="14" height="16" viewBox="0 0 14 16" fill="none" xmlns="http://www.w3.org/2000/svg">
<path fill-rule="evenodd" clip-rule="evenodd" d="M7.09781 0.5C7.74985 0.5 8.27843 1.0233 8.27843 1.66883V5.85042L11.9789 3.73531C12.5436 3.41255 13.2656 3.60409 13.5916 4.16313C13.9177 4.72218 13.7242 5.43702 13.1595 5.75979L9.36125 7.9308L13.0977 10.0665C13.6624 10.3892 13.8558 11.1041 13.5298 11.6631C13.2038 12.2222 12.4817 12.4137 11.9171 12.091L8.27843 10.0112V14.3312C8.27843 14.9767 7.74985 15.5 7.09781 15.5C6.44577 15.5 5.91718 14.9767 5.91718 14.3312V9.89937L2.08294 12.091C1.51825 12.4137 0.796196 12.2222 0.470175 11.6631C0.144155 11.1041 0.33763 10.3892 0.902314 10.0665L4.63875 7.9308L0.840509 5.75979C0.275825 5.43702 0.0823503 4.72218 0.408371 4.16313C0.734391 3.60409 1.45645 3.41255 2.02113 3.73531L5.91718 5.96223V1.66883C5.91718 1.0233 6.44577 0.5 7.09781 0.5Z" fill="#4C4C4C"/>
</svg>
