<svg width="24" height="24" viewBox="0 0 24 24" fill="none" xmlns="http://www.w3.org/2000/svg">
<path d="M5.57098 18.9858V19.6287C5.57098 19.9858 5.44598 20.2894 5.19598 20.5394C4.94597 20.7894 4.6424 20.9144 4.28525 20.9144C3.9281 20.9144 3.62452 20.7894 3.37452 20.5394C3.12451 20.2894 2.99951 19.9858 2.99951 19.6287V12.2922C2.99951 12.1726 3.0129 12.0528 3.03969 11.933C3.06648 11.8134 3.09773 11.6911 3.13344 11.5661L5.09392 6.70329C5.23339 6.33793 5.4683 6.04364 5.79866 5.82042C6.12903 5.5972 6.49064 5.4856 6.8835 5.4856H17.1158C17.5087 5.4856 17.8703 5.5972 18.2007 5.82042C18.531 6.04364 18.7659 6.33793 18.9054 6.70329L20.8659 11.5661C20.9016 11.6911 20.9328 11.8134 20.9596 11.933C20.9864 12.0528 20.9998 12.1726 20.9998 12.2922V19.6287C20.9998 19.9858 20.8748 20.2894 20.6248 20.5394C20.3748 20.7894 20.0712 20.9144 19.7141 20.9144C19.3569 20.9144 19.0533 20.7894 18.8033 20.5394C18.5533 20.2894 18.4283 19.9858 18.4283 19.6287V18.9858H5.57098ZM5.59777 10.6285H18.4015L17.1158 7.4142H6.8835L5.59777 10.6285ZM7.49959 16.0929C7.85673 16.0929 8.16031 15.9679 8.41031 15.7179C8.66032 15.4679 8.78532 15.1643 8.78532 14.8072C8.78532 14.45 8.66032 14.1465 8.41031 13.8964C8.16031 13.6464 7.85673 13.5214 7.49959 13.5214C7.14244 13.5214 6.83886 13.6464 6.58886 13.8964C6.33885 14.1465 6.21385 14.45 6.21385 14.8072C6.21385 15.1643 6.33885 15.4679 6.58886 15.7179C6.83886 15.9679 7.14244 16.0929 7.49959 16.0929ZM16.4997 16.0929C16.8569 16.0929 17.1605 15.9679 17.4105 15.7179C17.6605 15.4679 17.7855 15.1643 17.7855 14.8072C17.7855 14.45 17.6605 14.1465 17.4105 13.8964C17.1605 13.6464 16.8569 13.5214 16.4997 13.5214C16.1426 13.5214 15.839 13.6464 15.589 13.8964C15.339 14.1465 15.214 14.45 15.214 14.8072C15.214 15.1643 15.339 15.4679 15.589 15.7179C15.839 15.9679 16.1426 16.0929 16.4997 16.0929ZM4.92811 17.0572H19.0712V12.5571H4.92811V17.0572Z" fill="#4C4C4C"/>
</svg>
