<svg width="24" height="24" viewBox="0 0 24 24" fill="none" xmlns="http://www.w3.org/2000/svg">
<path d="M19 11.2875C19 9.90417 18.6333 8.64167 17.9 7.5C17.1667 6.35833 16.1833 5.50417 14.95 4.9375C14.7 4.82083 14.5167 4.64167 14.4 4.4C14.2833 4.15833 14.2667 3.9125 14.35 3.6625C14.45 3.39583 14.6292 3.20417 14.8875 3.0875C15.1458 2.97083 15.4083 2.97083 15.675 3.0875C17.2917 3.80417 18.5833 4.9 19.55 6.375C20.5167 7.85 21 9.4875 21 11.2875C21 13.0875 20.5167 14.725 19.55 16.2C18.5833 17.675 17.2917 18.7708 15.675 19.4875C15.4083 19.6042 15.1458 19.6042 14.8875 19.4875C14.6292 19.3708 14.45 19.1792 14.35 18.9125C14.2667 18.6625 14.2833 18.4167 14.4 18.175C14.5167 17.9333 14.7 17.7542 14.95 17.6375C16.1833 17.0708 17.1667 16.2167 17.9 15.075C18.6333 13.9333 19 12.6708 19 11.2875ZM7 14.3125H4C3.71667 14.3125 3.47917 14.2167 3.2875 14.025C3.09583 13.8333 3 13.5958 3 13.3125V9.3125C3 9.02917 3.09583 8.79167 3.2875 8.6C3.47917 8.40833 3.71667 8.3125 4 8.3125H7L10.3 5.0125C10.6167 4.69583 10.9792 4.625 11.3875 4.8C11.7958 4.975 12 5.2875 12 5.7375V16.8875C12 17.3375 11.7958 17.65 11.3875 17.825C10.9792 18 10.6167 17.9292 10.3 17.6125L7 14.3125ZM16.5 11.3125C16.5 12.0125 16.3417 12.675 16.025 13.3C15.7083 13.925 15.2917 14.4375 14.775 14.8375C14.6083 14.9375 14.4375 14.9417 14.2625 14.85C14.0875 14.7583 14 14.6125 14 14.4125V8.1625C14 7.9625 14.0875 7.81667 14.2625 7.725C14.4375 7.63333 14.6083 7.6375 14.775 7.7375C15.2917 8.15417 15.7083 8.67917 16.025 9.3125C16.3417 9.94583 16.5 10.6125 16.5 11.3125ZM10 8.1625L7.85 10.3125H5V12.3125H7.85L10 14.4625V8.1625Z" fill="#4C4C4C"/>
</svg>
