<svg width="48" height="48" viewBox="0 0 48 48" fill="none" xmlns="http://www.w3.org/2000/svg">
<path d="M0 24C0 10.7452 10.7452 0 24 0C37.2548 0 48 10.7452 48 24C48 37.2548 37.2548 48 24 48C10.7452 48 0 37.2548 0 24Z" fill="white"/>
<path d="M24 13.5C24.6833 13.5 25.2353 14.052 25.2353 14.7353V15.4417C29.0222 15.9822 32.0178 18.9778 32.5583 22.7647H33.2647C33.948 22.7647 34.5 23.3167 34.5 24C34.5 24.6833 33.948 25.2353 33.2647 25.2353H32.5583C32.0178 29.0222 29.0222 32.0178 25.2353 32.5583V33.2647C25.2353 33.948 24.6833 34.5 24 34.5C23.3167 34.5 22.7647 33.948 22.7647 33.2647V32.5583C18.9778 32.0178 15.9822 29.0222 15.4417 25.2353H14.7353C14.052 25.2353 13.5 24.6833 13.5 24C13.5 23.3167 14.052 22.7647 14.7353 22.7647H15.4417C15.9822 18.9778 18.9778 15.9822 22.7647 15.4417V14.7353C22.7647 14.052 23.3167 13.5 24 13.5ZM17.8235 24C17.8235 25.6381 18.4743 27.2091 19.6326 28.3674C20.7909 29.5257 22.3619 30.1765 24 30.1765C25.6381 30.1765 27.2091 29.5257 28.3674 28.3674C29.5257 27.2091 30.1765 25.6381 30.1765 24C30.1765 22.3619 29.5257 20.7909 28.3674 19.6326C27.2091 18.4743 25.6381 17.8235 24 17.8235C22.3619 17.8235 20.7909 18.4743 19.6326 19.6326C18.4743 20.7909 17.8235 22.3619 17.8235 24ZM24 20.2941C24.9829 20.2941 25.9255 20.6846 26.6205 21.3795C27.3154 22.0745 27.7059 23.0171 27.7059 24C27.7059 24.9829 27.3154 25.9255 26.6205 26.6205C25.9255 27.3154 24.9829 27.7059 24 27.7059C23.0171 27.7059 22.0745 27.3154 21.3795 26.6205C20.6846 25.9255 20.2941 24.9829 20.2941 24C20.2941 23.0171 20.6846 22.0745 21.3795 21.3795C22.0745 20.6846 23.0171 20.2941 24 20.2941Z" fill="#EF6F25"/>
</svg>
