<svg width="41" height="54" viewBox="0 0 41 54" fill="none" xmlns="http://www.w3.org/2000/svg">
<path d="M21 0C26.2917 0 30.9479 2.07288 34.9688 6.21777C38.9894 10.3626 41 15.9276 41 22.9131C41 25.0088 40.6354 27.2094 39.9062 29.5146C39.1771 31.8199 38.1145 34.2184 36.7188 36.71C35.3229 39.2015 33.5833 41.7751 31.5 44.4297C29.4167 47.0842 27.0207 49.8083 24.3125 52.6025C23.8542 53.0682 23.3333 53.4175 22.75 53.6504C22.1667 53.8832 21.5833 54 21 54C20.4167 54 19.8333 53.8832 19.25 53.6504C18.6667 53.4175 18.1458 53.0682 17.6875 52.6025C14.9793 49.8083 12.5833 47.0842 10.5 44.4297C8.41667 41.7751 6.67708 39.2015 5.28125 36.71C3.88547 34.2184 2.8229 31.8199 2.09375 29.5146C1.36463 27.2094 1 25.0088 1 22.9131C1.00005 15.9276 3.01061 10.3626 7.03125 6.21777C11.0521 2.07288 15.7083 1.55628e-07 21 0Z" fill="#FBBD06"/>
<path d="M10.1791 31.5C9.96526 31.5 9.77081 31.4465 9.59581 31.3396C9.42081 31.2326 9.2847 31.0917 9.18748 30.9167C9.09026 30.7417 9.03678 30.5521 9.02706 30.3479C9.01734 30.1438 9.07081 29.9444 9.18748 29.75L19.9791 11.0833C20.0958 10.8889 20.2465 10.7431 20.4312 10.6458C20.616 10.5486 20.8055 10.5 21 10.5C21.1944 10.5 21.384 10.5486 21.5687 10.6458C21.7535 10.7431 21.9041 10.8889 22.0208 11.0833L32.8125 29.75C32.9291 29.9444 32.9826 30.1438 32.9729 30.3479C32.9632 30.5521 32.9097 30.7417 32.8125 30.9167C32.7153 31.0917 32.5791 31.2326 32.4041 31.3396C32.2291 31.4465 32.0347 31.5 31.8208 31.5H10.1791ZM21 28C21.3305 28 21.6076 27.8882 21.8312 27.6646C22.0548 27.441 22.1666 27.1639 22.1666 26.8333C22.1666 26.5028 22.0548 26.2257 21.8312 26.0021C21.6076 25.7785 21.3305 25.6667 21 25.6667C20.6694 25.6667 20.3923 25.7785 20.1687 26.0021C19.9451 26.2257 19.8333 26.5028 19.8333 26.8333C19.8333 27.1639 19.9451 27.441 20.1687 27.6646C20.3923 27.8882 20.6694 28 21 28ZM21 24.5C21.3305 24.5 21.6076 24.3882 21.8312 24.1646C22.0548 23.941 22.1666 23.6639 22.1666 23.3333V19.8333C22.1666 19.5028 22.0548 19.2257 21.8312 19.0021C21.6076 18.7785 21.3305 18.6667 21 18.6667C20.6694 18.6667 20.3923 18.7785 20.1687 19.0021C19.9451 19.2257 19.8333 19.5028 19.8333 19.8333V23.3333C19.8333 23.6639 19.9451 23.941 20.1687 24.1646C20.3923 24.3882 20.6694 24.5 21 24.5Z" fill="black"/>
</svg>
